<?xml version="1.0" standalone="no"?>
<!DOCTYPE svg PUBLIC "-//W3C//DTD SVG 20010904//EN"
 "http://www.w3.org/TR/2001/REC-SVG-20010904/DTD/svg10.dtd">
<svg version="1.0" xmlns="http://www.w3.org/2000/svg"
 width="512.000000pt" height="512.000000pt" viewBox="0 0 512.000000 512.000000"
 preserveAspectRatio="xMidYMid meet">
<metadata>
Created by potrace 1.11, written by Peter Selinger 2001-2013
</metadata>
<g transform="translate(0.000000,512.000000) scale(0.100000,-0.100000)"
fill="#000000" stroke="none">
<path d="M2369 4956 c-2 -2 -37 -7 -77 -10 -40 -4 -78 -9 -85 -11 -7 -2 -31
-6 -55 -9 -82 -10 -295 -67 -413 -111 -658 -242 -1183 -763 -1429 -1419 -36
-95 -89 -280 -104 -361 -35 -187 -41 -258 -40 -505 1 -183 5 -248 23 -350 63
-363 186 -671 384 -965 34 -49 73 -104 87 -121 14 -17 43 -53 65 -80 63 -78
232 -243 325 -318 265 -213 575 -371 895 -456 61 -16 121 -31 135 -34 35 -6
89 -15 125 -21 84 -14 188 -20 360 -20 255 0 389 16 605 74 63 17 122 33 130
35 57 15 254 99 350 148 279 145 531 345 741 588 50 58 209 274 209 284 0 2
17 33 39 67 126 209 241 523 285 781 27 153 31 209 31 413 0 222 -6 291 -41
480 -67 368 -281 800 -544 1100 -40 46 -205 210 -241 240 -330 275 -705 462
-1074 535 -27 5 -59 11 -70 14 -11 2 -45 7 -75 11 -30 4 -64 9 -75 12 -24 6
-460 14 -466 9z m-354 -443 c-187 -125 -359 -291 -517 -500 -39 -51 -74 -93
-78 -93 -21 0 -220 163 -219 180 0 8 136 112 219 168 179 120 439 238 625 285
41 10 38 6 -30 -40z m1165 5 c249 -78 464 -192 654 -347 39 -31 74 -59 80 -63
6 -4 5 -13 -4 -23 -22 -26 -211 -166 -220 -163 -5 2 -31 33 -58 70 -125 173
-351 392 -532 518 -84 58 -79 58 80 8z m-790 -551 l0 -383 -67 8 c-163 19
-436 90 -562 147 l-39 17 59 74 c92 117 257 278 365 359 78 58 228 157 242
160 1 1 2 -171 2 -382z m485 290 c151 -101 324 -263 451 -422 l64 -79 -32 -17
c-57 -29 -209 -79 -317 -105 -115 -27 -134 -31 -238 -40 l-73 -7 0 382 0 381
43 -26 c23 -15 69 -45 102 -67z m-1831 -476 c46 -38 112 -88 145 -111 34 -24
61 -47 61 -51 0 -4 -11 -28 -24 -52 -65 -123 -174 -485 -192 -634 -3 -32 -8
-60 -9 -64 -2 -3 -7 -39 -11 -80 -3 -40 -8 -76 -11 -79 -2 -3 -116 -5 -252 -5
l-247 0 2 25 c10 110 15 146 34 245 16 79 18 86 39 162 45 157 145 376 237
518 43 66 136 195 141 195 2 0 41 -31 87 -69z m3142 41 c223 -288 386 -692
420 -1037 3 -33 7 -64 8 -70 2 -6 -87 -10 -253 -10 -222 0 -257 2 -257 15 -1
30 -14 166 -18 185 -2 11 -7 40 -11 65 -28 174 -96 391 -176 567 -43 94 -47
83 49 151 48 34 114 84 147 111 33 27 62 50 65 50 3 0 14 -12 26 -27z m-2496
-421 c64 -27 179 -67 216 -76 10 -2 48 -11 84 -20 87 -22 143 -32 214 -40 33
-4 67 -9 75 -10 9 -2 37 -4 64 -4 l47 -1 0 -270 c0 -148 -3 -271 -7 -271 -5
-1 -238 -2 -520 -3 -592 -1 -526 -17 -506 123 32 224 77 375 169 579 l24 52
37 -16 c21 -9 67 -28 103 -43z m1896 22 c9 -21 22 -51 30 -68 26 -58 93 -271
109 -350 9 -44 18 -87 20 -95 9 -44 19 -162 16 -187 -1 -8 -135 -11 -516 -11
l-515 0 0 269 0 269 43 1 c23 0 49 2 58 4 8 1 42 6 75 9 32 4 66 9 74 11 8 2
26 6 40 9 116 20 340 89 485 150 33 14 61 25 63 26 2 0 10 -17 18 -37z m-2575
-1094 c1 -22 2 -42 3 -46 1 -5 6 -35 10 -68 22 -165 91 -408 172 -603 24 -59
44 -110 44 -113 0 -4 -38 -34 -84 -68 -47 -33 -111 -83 -142 -111 -71 -60 -64
-63 -170 95 -150 225 -276 536 -310 760 -3 22 -10 58 -15 80 -4 22 -9 56 -9
76 l0 37 250 -1 250 0 1 -38z m1379 -209 l0 -248 -77 -8 c-43 -4 -80 -8 -83
-9 -3 -1 -30 -5 -60 -9 -146 -21 -372 -84 -526 -146 -54 -22 -99 -39 -100 -37
-2 2 -15 30 -30 62 -81 183 -142 406 -160 581 l-7 61 522 0 521 1 0 -248z
m1364 206 c-19 -152 -59 -316 -112 -461 -34 -92 -79 -195 -85 -195 -3 0 -37
14 -76 30 -74 32 -261 96 -302 104 -13 2 -53 11 -89 20 -117 27 -214 41 -312
44 l-48 2 0 249 0 248 515 1 514 0 -5 -42z m850 5 c-9 -76 -15 -117 -19 -141
-3 -14 -7 -36 -10 -50 -13 -68 -18 -91 -41 -170 -73 -248 -219 -527 -365 -694
-4 -5 -47 24 -94 63 -48 40 -115 90 -149 113 -33 23 -62 42 -63 43 -2 1 17 46
41 101 75 171 132 364 170 579 3 17 9 57 12 90 4 33 8 67 10 75 1 8 3 18 3 21
1 3 115 6 255 6 l255 1 -5 -37z m-1789 -806 c170 -16 428 -85 542 -144 l33
-16 -61 -75 c-152 -187 -342 -358 -541 -484 l-58 -37 0 385 c0 304 3 385 13
381 6 -2 39 -6 72 -10z m-425 -375 c0 -216 -4 -380 -9 -380 -20 0 -254 162
-328 227 -93 82 -227 224 -301 320 l-33 43 38 15 c207 87 449 150 591 154 l42
1 0 -380z m1418 -24 c131 -99 129 -96 89 -132 -17 -16 -50 -43 -72 -59 -22
-17 -42 -32 -45 -36 -11 -13 -131 -89 -205 -130 -119 -66 -234 -116 -364 -159
-184 -60 -187 -60 -91 11 196 143 357 300 498 482 41 53 79 97 83 97 5 0 53
-33 107 -74z m-2354 27 c13 -21 32 -47 42 -58 11 -11 46 -52 79 -90 126 -148
308 -314 443 -403 29 -19 51 -37 49 -38 -6 -7 -181 48 -272 84 -194 78 -433
220 -554 329 l-54 49 109 82 c60 44 115 81 121 81 7 1 24 -16 37 -36z"/>
</g>
</svg>
